PathFileType	4	(X/Y/Z)	TVC_9_BWA1_walk_RCNL2025.trc
DataRate	CameraRate	NumFrames	NumMarkers	Units	OrigDataRate	OrigDataStartFrame	OrigNumFrames
100	100	10	27	mm	100	199	397
Frame#	Time	R_Shoulder			L_Shoulder			C7			J_Notch			R_Elbow			L_Elbow			R_Wrist			L_Wrist			R_Asis			L_Asis			R_Psis			L_Psis			Sacral			Thoracic			Sternum			R_Thigh_Lateral			R_Knee_Lateral			R_Shank_Lateral			R_Ankle_Lateral			R_Heel			R_Toe			L_Thigh_Lateral			L_Knee_Lateral			L_Shank_Lateral			L_Ankle_Lateral			L_Heel			L_Toe		
		X1	Y1	Z1	X2	Y2	Z2	X3	Y3	Z3	X4	Y4	Z4	X5	Y5	Z5	X6	Y6	Z6	X7	Y7	Z7	X8	Y8	Z8	X9	Y9	Z9	X10	Y10	Z10	X11	Y11	Z11	X12	Y12	Z12	X13	Y13	Z13	X14	Y14	Z14	X15	Y15	Z15	X16	Y16	Z16	X17	Y17	Z17	X18	Y18	Z18	X19	Y19	Z19	X20	Y20	Z20	X21	Y21	Z21	X22	Y22	Z22	X23	Y23	Z23	X24	Y24	Z24	X25	Y25	Z25	X26	Y26	Z26	X27	Y27	Z27
199	1.98000000	156.521317	1373.357910	-151.444092	121.553688	1380.501099	-542.940002	92.297874	1444.820923	-352.475250	242.908951	1339.788086	-346.478485	61.474010	1058.643066	-50.799690	147.153015	1047.123169	-637.664917	100.752182	810.053558	-59.347402	286.731079	845.815430	-662.005096	174.905273	932.829834	-182.897858	158.925507	934.741333	-488.587555	-23.220612	960.137756	-273.192719	-27.296127	963.046448	-373.234680	-25.258369	961.592102	-323.213699	-10.620488	1172.542480	-336.386322	294.095520	1148.384155	-345.780334	252.018295	550.104797	-117.595657	256.785217	477.861542	-185.311020	183.554535	347.139618	-130.720581	36.916496	169.870880	-191.566330	-20.268822	178.090088	-252.667160	142.824509	95.266891	-226.243088	152.482086	568.487915	-510.033813	126.438843	440.496002	-447.592102	103.242638	295.335510	-491.091797	56.761135	77.060760	-410.422638	2.307937	54.332970	-352.373871	193.674210	41.960381	-386.363770
200	1.99000000	164.239578	1373.516846	-151.646698	130.374771	1380.401367	-543.186523	100.755043	1444.653076	-352.999390	251.320801	1339.510498	-346.549896	63.703571	1059.869507	-52.748119	160.754150	1047.949707	-639.472778	98.295078	810.459961	-60.671988	303.964905	849.279907	-664.530304	182.993256	932.789062	-183.423141	167.269379	934.410706	-488.789520	-15.024229	959.961243	-273.535797	-19.246441	963.079346	-373.486969	-17.135335	961.520294	-323.511383	-2.295902	1172.433594	-336.825073	302.323212	1148.058472	-345.717316	265.186340	551.520264	-119.293663	270.713531	478.889496	-187.145340	202.252457	345.439667	-132.277847	62.819378	162.146286	-192.948944	5.218355	167.648560	-254.012863	171.905762	92.889290	-227.577850	156.647751	568.096252	-510.219818	129.161240	440.299072	-447.681213	104.960716	295.385590	-491.371368	56.936897	77.306480	-410.424316	2.447812	54.779938	-352.441010	193.809723	41.771683	-386.480896
201	2.00000000	171.927368	1373.623291	-151.808746	139.227661	1380.214722	-543.392212	109.192497	1444.422729	-353.504364	259.713379	1339.168091	-346.583710	66.122238	1061.141113	-54.535641	174.144470	1048.766846	-641.205078	96.338680	811.041138	-62.018523	320.861862	852.737152	-666.974060	191.149231	932.665894	-183.939758	175.578964	933.997925	-489.016754	-6.772604	959.707031	-273.796631	-11.165072	963.029175	-373.648865	-8.968838	961.368103	-323.722748	6.034315	1172.241821	-337.268799	310.545990	1147.671265	-345.595581	277.771606	552.715393	-120.842735	284.076355	479.651001	-188.804611	220.675171	343.497101	-133.779800	89.029266	154.323471	-194.452225	31.180573	157.092056	-255.496292	201.137970	90.544678	-229.026535	160.858322	567.683228	-510.399658	131.982330	440.109528	-447.763794	106.758713	295.448883	-491.619324	57.165649	77.581726	-410.423370	2.619748	55.303318	-352.494202	193.967865	41.607525	-386.591949
202	2.01000000	179.599152	1373.671875	-151.929932	148.090485	1379.950806	-543.552185	117.617729	1444.134399	-353.975494	268.093689	1338.766724	-346.580109	68.771469	1062.432617	-56.154667	187.320145	1049.574341	-642.863098	94.906570	811.757874	-63.379264	337.410507	856.177185	-669.327271	199.376343	932.458069	-184.449524	183.840805	933.523621	-489.286041	1.538598	959.377197	-273.965851	-3.047292	962.901245	-373.717682	-0.754347	961.139221	-323.841766	14.374387	1171.974731	-337.705933	318.772614	1147.231934	-345.430786	289.755737	553.653992	-122.216362	296.850983	480.126251	-190.261520	238.809616	341.337189	-135.209717	115.528564	146.497345	-196.069916	57.586842	146.560745	-257.104919	230.456528	88.248978	-230.619659	165.138748	567.262329	-510.566559	134.898376	439.936035	-447.838715	108.630867	295.527954	-491.823517	57.451588	77.892509	-410.424957	2.822218	55.905132	-352.534210	194.151810	41.470703	-386.690002
203	2.02000000	187.269821	1373.659424	-152.008636	156.944107	1379.621582	-543.660645	126.037788	1443.793091	-354.396698	276.469208	1338.314209	-346.537201	71.691978	1063.718018	-57.601700	200.277435	1050.374756	-644.446716	94.017029	812.571045	-64.745728	353.597992	859.591034	-671.581085	207.678986	932.167664	-184.951462	192.050705	933.010132	-489.604584	9.912744	958.974487	-274.039276	5.112239	962.700806	-373.692902	7.512491	960.837646	-323.866089	22.728775	1171.640381	-338.120392	327.012177	1146.751221	-345.237518	301.121338	554.299988	-123.390381	309.013458	480.300171	-191.493378	256.648071	338.991241	-136.551819	142.295715	138.759979	-197.789322	84.395645	136.191528	-258.819672	259.798645	86.018059	-232.386826	169.513367	566.847656	-510.713745	137.904953	439.787567	-447.906860	110.571281	295.627350	-491.977142	57.795403	78.247383	-410.434967	3.054024	56.586720	-352.564423	194.361069	41.361217	-386.770020
204	2.03000000	194.954926	1373.584717	-152.041611	165.773361	1379.240601	-543.710754	134.458984	1443.404053	-354.750977	284.847748	1337.819092	-346.451599	74.922615	1064.971680	-58.876408	213.011383	1051.172119	-645.954285	93.684948	813.442596	-66.108759	369.410141	862.969879	-673.727692	216.063477	931.799805	-185.442215	200.214371	932.479431	-489.969879	18.352613	958.502380	-274.018524	13.319419	962.433105	-373.576721	15.836016	960.467743	-323.797623	31.102446	1171.247314	-338.492676	335.273834	1146.240845	-345.027649	311.848297	554.616943	-124.345474	320.540070	480.163452	-192.484863	274.185791	336.497223	-137.792755	169.299805	131.203125	-199.591873	111.552116	126.115852	-260.616577	289.101105	83.874649	-234.349228	174.005478	566.452942	-510.835602	140.999359	439.672791	-447.971130	112.577011	295.753387	-492.080383	58.194965	78.656822	-410.459625	3.314583	57.350403	-352.591644	194.592087	41.276890	-386.829681
205	2.04000000	202.671265	1373.448486	-152.023819	174.567703	1378.822510	-543.694824	142.886826	1442.973145	-355.021301	293.237122	1337.290771	-346.318878	78.499496	1066.168579	-59.980610	225.514755	1051.971191	-647.382080	93.923832	814.336670	-67.458416	384.831696	866.304565	-675.760345	224.538315	931.361206	-185.916565	208.346207	931.951599	-490.370880	26.860945	957.964783	-273.910828	21.580658	962.103577	-373.373779	24.220801	960.034180	-323.642303	39.501167	1170.804199	-338.801117	343.566528	1145.712280	-344.809631	321.910278	554.568726	-125.069725	331.410400	479.713379	-193.230438	291.417847	333.899384	-138.923004	196.494186	123.919502	-201.453964	138.984833	116.456848	-262.468048	318.296753	81.854546	-236.512650	178.637146	566.090576	-510.929047	144.183334	439.599274	-448.036316	114.650871	295.913727	-492.140594	58.646381	79.132500	-410.505219	3.603763	58.201248	-352.626312	194.839218	41.214100	-386.869873
206	2.05000000	210.437210	1373.252808	-151.948730	183.320786	1378.382568	-543.604492	151.326324	1442.506714	-355.191162	301.644867	1336.739014	-346.134399	82.455376	1067.286133	-60.917412	237.777725	1052.776489	-648.724548	94.747154	815.220306	-68.783735	399.846664	869.585327	-677.673309	233.113907	930.858765	-186.368149	216.466858	931.443665	-490.790741	35.441002	957.366516	-273.727936	29.902885	961.717468	-373.090973	32.671944	959.541992	-323.409454	47.931698	1170.318848	-339.023438	351.898651	1145.176758	-344.588196	331.272827	554.120544	-125.560951	341.611115	478.954620	-193.736099	308.335510	331.247009	-139.937759	223.810120	117.002480	-203.348038	166.602310	107.326126	-264.344147	347.309906	80.010902	-238.861771	183.428909	565.770569	-510.994843	147.465271	439.572693	-448.108917	116.803108	296.116364	-492.171997	59.145199	79.686386	-410.578400	3.921532	59.148235	-352.682251	195.095886	41.168396	-386.894379
207	2.06000000	218.272705	1373.001587	-151.808548	192.029572	1377.936279	-543.430481	159.782211	1442.011475	-355.245300	310.078003	1336.173584	-345.893738	86.819191	1068.303955	-61.690617	249.787979	1053.592407	-649.974792	96.169003	816.064178	-70.072540	414.438950	872.802063	-679.461121	241.801910	930.298767	-186.790161	224.600052	930.968811	-491.209991	44.097054	956.713013	-273.484253	38.293655	961.280396	-372.736176	41.195354	958.996704	-323.110214	56.401802	1169.798828	-339.137970	360.277954	1144.644775	-344.364807	339.893219	553.241516	-125.828308	351.140045	477.900146	-194.019974	324.921753	328.592438	-140.837357	251.151093	110.543488	-205.243759	194.290115	98.820091	-266.214233	376.051483	78.414986	-241.356445	188.399750	565.500000	-511.038177	150.861496	439.596130	-448.196533	119.051437	296.368958	-492.193878	59.687630	80.329918	-410.686462	4.267809	60.204498	-352.776093	195.355698	41.135006	-386.909454
208	2.07000000	226.198669	1372.699585	-151.594849	200.693207	1377.499146	-543.163147	168.259171	1441.494629	-355.170349	318.542755	1335.604248	-345.593018	91.615623	1069.204590	-62.304405	261.531311	1054.422241	-651.125244	98.203949	816.842682	-71.311373	428.592865	875.944489	-681.118439	250.614471	929.686768	-187.175903	232.769684	930.536011	-491.609985	52.834724	956.010193	-273.194611	46.761364	960.797607	-372.317322	49.798044	958.403900	-322.755966	64.919991	1169.250122	-339.125275	368.711517	1144.125610	-344.138672	347.723846	551.908264	-125.892899	360.009552	476.571808	-194.111588	341.146881	325.987823	-141.626633	278.388977	104.627380	-207.109283	221.908981	91.016121	-268.049194	404.414093	77.151985	-243.930969	193.567245	565.281921	-511.068359	154.396118	439.669678	-448.307556	121.419411	296.677917	-492.228027	60.271656	81.073410	-410.837646	4.642642	61.386406	-352.925903	195.613480	41.109276	-386.923004
